HIERARCHY
ROOT root
{
	OFFSET 0.000000 0.000000 0.000000
	CHANNELS 6 Xposition Yposition Zposition Zrotation Yrotation Xrotation
	JOINT lhip
	{
		OFFSET 0.058581 -0.082280 -0.017664
		CHANNELS 3 Zrotation Yrotation Xrotation
		JOINT lknee
		{
			OFFSET 0.043451 -0.386469 0.008037
			CHANNELS 3 Zrotation Yrotation Xrotation
			JOINT lankle
			{
				OFFSET -0.014790 -0.426874 -0.037428
				CHANNELS 3 Zrotation Yrotation Xrotation
				JOINT ltoe
				{
					OFFSET 0.041054 -0.060286 0.122042
					CHANNELS 3 Zrotation Yrotation Xrotation
					End Site
					{
						OFFSET 0.000000 0.000000 0.000000
					}
				}
			}
		}
	}
	JOINT rhip
	{
		OFFSET -0.060310 -0.090513 -0.013543
		CHANNELS 3 Zrotation Yrotation Xrotation
		JOINT rknee
		{
			OFFSET -0.043257 -0.383688 -0.004843
			CHANNELS 3 Zrotation Yrotation Xrotation
			JOINT rankle
			{
				OFFSET 0.019056 -0.420046 -0.034562
				CHANNELS 3 Zrotation Yrotation Xrotation
				JOINT rtoe
				{
					OFFSET -0.034840 -0.062106 0.130323
					CHANNELS 3 Zrotation Yrotation Xrotation
					End Site
					{
						OFFSET 0.000000 0.000000 0.000000
					}
				}
			}
		}
	}
	JOINT lowerback
	{
		OFFSET 0.004439 0.124404 -0.038385
		CHANNELS 3 Zrotation Yrotation Xrotation
		JOINT upperback
		{
			OFFSET 0.004488 0.137956 0.026820
			CHANNELS 3 Zrotation Yrotation Xrotation
			JOINT chest
			{
				OFFSET -0.002265 0.056032 0.002855
				CHANNELS 3 Zrotation Yrotation Xrotation
				JOINT lowerneck
				{
					OFFSET -0.013390 0.211636 -0.033468
					CHANNELS 3 Zrotation Yrotation Xrotation
					JOINT upperneck
					{
						OFFSET 0.010113 0.088937 0.050410
						CHANNELS 3 Zrotation Yrotation Xrotation
						End Site
						{
							OFFSET 0.000000 0.000000 0.000000
						}
					}
				}
				JOINT lclavicle
				{
					OFFSET 0.071702 0.114000 -0.018898
					CHANNELS 3 Zrotation Yrotation Xrotation
					JOINT lshoulder
					{
						OFFSET 0.122921 0.045205 -0.019046
						CHANNELS 3 Zrotation Yrotation Xrotation
						JOINT lelbow
						{
							OFFSET 0.255332 -0.015649 -0.022946
							CHANNELS 3 Zrotation Yrotation Xrotation
							JOINT lwrist
							{
								OFFSET 0.265709 0.012698 -0.007375
								CHANNELS 3 Zrotation Yrotation Xrotation
								End Site
								{
									OFFSET 0.000000 0.000000 0.000000
								}
							}
						}
					}
				}
				JOINT rclavicle
				{
					OFFSET -0.082954 0.112472 -0.023707
					CHANNELS 3 Zrotation Yrotation Xrotation
					JOINT rshoulder
					{
						OFFSET -0.113228 0.046853 -0.008472
						CHANNELS 3 Zrotation Yrotation Xrotation
						JOINT relbow
						{
							OFFSET -0.260127 -0.014369 -0.031269
							CHANNELS 3 Zrotation Yrotation Xrotation
							JOINT rwrist
							{
								OFFSET -0.269108 0.006794 -0.006027
								CHANNELS 3 Zrotation Yrotation Xrotation
								End Site
								{
									OFFSET 0.000000 0.000000 0.000000
								}
							}
						}
					}
				}
			}
		}
	}
}
MOTION
Frames: 10
Frame Time: 0.033333
-0.385747 0.489312 1.016871 99.838998 1.635373 85.606230 0.293603 -2.605624 -23.266880 -7.537107 0.387897 61.346464 8.571746 6.543277 -8.910107 0.000000 -0.000000 0.000000 5.896647 1.882867 -6.139981 2.278774 -0.081033 31.711207 -2.595575 -1.558323 -11.247474 0.000000 -0.000000 0.000000 -1.682184 7.064961 15.607082 5.445814 -1.432400 0.442140 1.444946 0.566116 4.075602 8.492773 -6.932217 21.428188 1.020765 -11.165257 19.846036 -10.154558 12.555582 8.028406 -54.526632 24.640303 7.469309 -37.537641 -49.915268 59.785996 5.298532 -10.917223 -15.849920 7.840672 5.782311 -0.315497 68.148559 22.864611 26.469384 -174.343909 52.464867 -155.060524 -47.715357 -6.304096 -28.743500 
-0.371329 0.487603 1.013299 99.911389 1.584898 84.785878 0.632970 -4.140022 -27.930656 -7.229696 2.082451 64.470830 8.570595 5.849651 -9.328555 0.000000 -0.000000 0.000000 6.281620 0.231429 -0.625417 0.800693 0.295429 23.314898 -3.984592 -3.759745 -13.898777 0.000000 -0.000000 0.000000 -1.231042 8.304744 16.580399 5.597129 -2.332101 -0.041866 1.706602 0.658867 4.212599 7.856824 -7.486204 21.365527 1.329113 -11.153982 19.893813 -9.994034 12.406513 8.813443 -54.436091 24.848336 6.780286 -38.354289 -50.259720 60.193999 4.740412 -11.083790 -17.968394 7.547215 5.899625 -0.005223 68.409532 22.753437 25.998212 -174.249146 52.153692 -154.404880 -47.527516 -5.985753 -28.714815 
-0.357199 0.486737 0.999839 98.203025 1.370891 84.249656 0.646237 -4.395215 -29.611684 -7.507515 1.532011 60.683486 8.476596 5.162069 -7.378030 0.000000 -0.000000 0.000000 5.526785 -1.615366 2.521747 0.804813 0.580921 18.611070 -5.224371 -4.594486 -16.623926 0.000000 -0.000000 0.000000 -0.412205 9.414136 17.203814 5.078917 -2.136380 -0.531970 1.713555 0.995284 4.437080 7.403008 -7.219084 20.853430 0.999492 -11.440296 20.579901 -9.880832 12.331271 8.768662 -54.530305 25.119012 6.390703 -37.555095 -49.478405 59.633320 5.021193 -10.800956 -18.011135 6.919943 6.222506 0.189090 69.125901 22.705495 25.596771 -174.393873 52.183184 -154.444343 -47.755565 -6.030112 -28.640443 
-0.343735 0.486275 0.981577 95.747077 2.070492 83.322365 0.893623 -4.629727 -28.839332 -8.748761 -2.487674 58.489511 7.262822 4.668304 -7.187934 0.000000 -0.000000 0.000000 5.638826 -2.168798 3.856187 1.884765 1.000554 19.472613 -7.213988 -4.117635 -20.293030 0.000000 -0.000000 0.000000 1.237687 9.503540 18.393986 4.773892 -1.400877 -0.692871 1.666130 1.600166 4.374211 7.254392 -6.095472 20.403313 0.082327 -11.749025 20.405523 -10.239334 11.885037 8.053734 -55.591387 26.110642 5.999943 -35.799429 -48.631912 58.787729 6.204580 -10.201281 -17.010796 6.190784 7.350959 0.267405 68.753453 23.001417 24.094205 -175.278553 52.350558 -154.919456 -48.419095 -6.249868 -28.682082 
-0.330857 0.486308 0.967644 94.092531 3.375110 81.866242 1.265402 -5.583211 -27.122008 -7.992667 -3.995132 60.926799 6.219913 6.239955 -10.477625 0.000000 -0.000000 0.000000 6.769011 -1.706329 4.299343 2.624861 0.837776 23.238708 -8.081505 -4.118365 -22.958810 0.000000 -0.000000 0.000000 2.817086 8.795568 20.226519 5.122759 -0.863858 -0.429804 1.889827 1.901794 4.343976 7.511433 -5.310613 19.484347 -1.172974 -11.314224 20.802797 -10.910228 11.292621 6.859128 -57.859727 26.333031 5.691324 -32.766078 -47.136228 57.045153 6.705531 -9.882208 -14.971462 5.259961 8.215389 -0.487525 68.410568 23.185154 23.498282 -175.347642 52.856235 -154.594444 -49.126929 -6.475330 -28.378126 
-0.320880 0.486028 0.964422 93.542856 4.254022 81.721253 0.985288 -6.369676 -26.426556 -6.231707 -3.130107 61.739305 7.518222 9.022618 -11.404542 0.000000 -0.000000 0.000000 7.261591 -0.641485 2.083279 3.632542 -0.336584 28.531330 -7.543905 -3.846378 -23.000744 0.000000 -0.000000 0.000000 2.945481 7.956194 20.921808 5.700790 -0.687010 -0.315427 2.190009 1.680490 4.295493 8.090608 -5.427313 19.448279 -1.596318 -10.309269 21.322015 -11.416015 11.177759 6.296456 -59.707841 25.631134 5.705545 -30.749972 -46.625650 55.733830 6.781699 -9.319815 -13.182375 5.092784 8.440166 -0.703512 69.151031 23.116488 24.372731 -174.899014 53.415406 -154.313690 -49.542303 -6.491964 -28.168738 
-0.310666 0.484578 0.969119 93.602014 4.728581 82.322669 0.761113 -6.750978 -25.435488 -4.727233 -2.255207 60.434273 8.672969 10.946212 -11.879831 0.000000 -0.000000 0.000000 7.515569 -0.190391 0.765567 3.956321 -1.171134 30.531878 -6.568525 -3.051104 -21.077409 0.000000 -0.000000 0.000000 2.204319 7.627198 20.486009 6.328017 -1.147985 0.066760 2.577061 1.328629 4.038928 8.361902 -5.858857 20.628690 -1.173528 -9.648285 20.982770 -11.658287 10.713241 6.730282 -60.277722 24.725977 6.259983 -31.324381 -47.631942 55.812612 7.086462 -9.301583 -14.119510 5.603381 8.484812 -0.301546 69.906755 22.841629 25.195962 -174.806332 53.753348 -154.249845 -49.657335 -6.153383 -27.904414 
-0.299453 0.483933 0.977299 93.962888 5.022918 83.629394 0.763052 -7.424327 -24.232341 -4.008512 -2.576051 57.918822 8.581811 11.553838 -13.060385 0.000000 -0.000000 0.000000 7.717261 -0.034102 1.569477 3.802523 -1.250417 27.537061 -5.398619 -2.147413 -18.736844 0.000000 -0.000000 0.000000 1.902333 7.435497 19.026113 6.660644 -1.830902 0.419071 2.676913 0.927521 3.870423 8.315176 -6.086295 21.444296 -1.055741 -9.550483 21.308674 -11.740094 10.471023 7.023823 -60.051916 23.653286 6.845055 -31.686041 -48.792122 56.392737 5.970958 -10.127964 -14.284330 5.989217 8.109924 0.016053 70.351194 22.517676 25.863850 -174.921345 54.263987 -154.481484 -49.249803 -6.391733 -28.555590 
-0.290137 0.484716 0.986533 93.514970 4.961070 85.347155 0.930166 -8.105136 -23.365151 -4.001557 -3.589109 55.038766 8.127935 11.274960 -14.041199 0.000000 -0.000000 0.000000 7.134954 -0.146173 1.567132 4.157707 -0.954454 24.796355 -4.152518 -1.019606 -15.743183 0.000000 -0.000000 0.000000 1.838978 7.377515 17.601760 6.433585 -1.948887 0.395829 2.557848 0.746756 3.896655 7.924428 -6.133817 21.377085 -1.076997 -9.298649 21.715758 -11.802525 10.724496 6.858116 -59.906569 22.603009 6.782428 -30.463074 -49.904427 54.410452 6.652279 -10.019915 -13.927996 6.047919 7.740540 0.083176 70.534033 22.412009 26.490645 -174.972327 54.729910 -155.014482 -49.216332 -6.491195 -28.765760 
-0.281450 0.485465 0.995293 91.782164 4.851076 86.313891 1.103156 -7.941994 -21.681114 -4.090635 -4.611920 51.853213 7.800773 11.224910 -14.522783 0.000000 -0.000000 0.000000 6.651030 -0.065625 0.416588 4.398513 -0.286868 25.117957 -3.132027 -0.125443 -12.400506 0.000000 -0.000000 0.000000 1.582651 7.380066 17.127414 6.057010 -1.549064 0.598021 2.574268 0.958412 3.861794 7.122953 -5.921219 21.198553 -0.960503 -8.510295 21.316663 -11.897962 10.552893 6.626091 -59.847135 22.108881 6.781624 -29.535387 -50.909116 51.302853 10.724449 -8.929359 -15.108993 5.905347 8.128488 -0.067425 70.306642 22.796021 26.761298 -174.587750 55.035630 -155.173363 -49.952509 -6.024782 -27.819586 
